# Blender v2.90.1 OBJ File: 'box plane.blend'
# www.blender.org
mtllib box plane.mtl
o Cube_Cube.001
v -1.000000 -1.000000 1.000000
v -1.000000 1.000000 1.000000
v -1.000000 -1.000000 -6.373643
v -1.000000 1.000000 -6.373643
v 1.000000 -1.000000 1.000000
v 1.000000 1.000000 1.000000
v 1.000000 -1.000000 -6.373643
v 1.000000 1.000000 -6.373643
v -1.000000 1.000000 -7.906812
v 1.000000 1.000000 -7.906812
v -1.000000 -1.000000 -0.945945
v -1.000000 1.000000 -0.945945
v 1.000000 -1.000000 -0.945945
v 1.000000 1.000000 -0.945945
v -1.000000 1.000000 -2.953692
v 1.000000 -1.000000 -2.953692
v -1.000000 -1.000000 -2.953691
v 1.000000 1.000000 -2.953691
v -1.000000 0.656308 1.000000
v -1.000000 0.656308 -6.373643
v 1.000000 0.656308 -6.373643
v 1.000000 0.656308 1.000000
v 1.000000 0.656308 -0.945945
v -1.000000 0.656308 -0.945945
v 1.000000 0.656308 -2.953691
v -1.000000 0.656308 -2.953691
v 7.000000 1.000000 -2.953691
v 7.000000 1.000000 -0.945945
v 7.000000 0.656308 -0.945945
v 7.000000 0.656308 -2.953691
v -7.000000 1.000000 -0.945945
v -7.000000 1.000000 -2.953692
v -7.000000 0.656308 -0.945945
v -7.000000 0.656308 -2.953691
vt 0.548887 0.165865
vt 0.625000 0.165865
vt 0.625000 0.250000
vt 0.548887 0.250000
vt 0.000000 0.000000
vt 0.375000 0.500000
vt 0.125000 0.500000
vt 0.000000 0.000000
vt 0.548887 0.652207
vt 0.625000 0.652207
vt 0.625000 0.750000
vt 0.548887 0.750000
vt 0.625000 1.000000
vt 0.548887 1.000000
vt 0.125000 0.652207
vt 0.375000 0.652207
vt 0.375000 0.750000
vt 0.125000 0.750000
vt 0.875000 0.652207
vt 0.875000 0.750000
vt 0.472775 0.326113
vt 0.625000 0.500000
vt 0.548887 0.500000
vt 0.625000 0.584135
vt 0.875000 0.584135
vt 0.125000 0.584135
vt 0.375000 0.584135
vt 0.548887 0.584135
vt 0.625000 0.584135
vt 0.548887 0.584135
vt 0.548887 0.000000
vt 0.625000 0.000000
vt 0.625000 0.097793
vt 0.548887 0.097793
vt 0.875000 0.500000
vt 0.548887 0.097793
vt 0.548887 0.165865
vt 0.375000 0.097793
vt 0.375000 0.165865
vt 0.375000 0.000000
vt 0.375000 1.000000
vt 0.375000 0.250000
vt 0.625000 0.652207
vt 0.548887 0.652207
vt 0.625000 0.097793
vt 0.625000 0.165865
vt 0.875000 0.584135
vt 0.875000 0.652207
vn -1.0000 0.0000 0.0000
vn 0.0000 -0.6084 -0.7936
vn 1.0000 0.0000 0.0000
vn 0.0000 0.0000 1.0000
vn 0.0000 -1.0000 0.0000
vn 0.0000 1.0000 0.0000
vn 0.0000 0.0000 -1.0000
usemtl None
s off
f 26/1/1 15/2/1 4/3/1 20/4/1
f 10/5/2 7/6/2 3/7/2 9/8/2
f 23/9/3 14/10/3 6/11/3 22/12/3
f 22/12/4 6/11/4 2/13/4 19/14/4
f 11/15/5 13/16/5 5/17/5 1/18/5
f 14/10/6 12/19/6 2/20/6 6/11/6
f 3/7/1 20/21/1 4/3/1 9/8/1
f 8/22/6 10/5/6 9/8/6 4/3/6
f 7/6/3 10/5/3 8/22/3 21/23/3
f 18/24/6 15/25/6 12/19/6 14/10/6
f 17/26/5 16/27/5 13/16/5 11/15/5
f 25/28/7 18/24/7 27/29/7 30/30/7
f 19/31/1 2/32/1 12/33/1 24/34/1
f 21/23/3 8/22/3 18/24/3 25/28/3
f 3/7/5 7/6/5 16/27/5 17/26/5
f 8/22/6 4/35/6 15/25/6 18/24/6
f 26/1/5 24/34/5 33/36/5 34/37/5
f 11/38/1 24/34/1 26/1/1 17/39/1
f 7/6/3 21/23/3 25/28/3 16/27/3
f 1/40/1 19/31/1 24/34/1 11/38/1
f 16/27/3 25/28/3 23/9/3 13/16/3
f 5/17/4 22/12/4 19/14/4 1/41/4
f 13/16/3 23/9/3 22/12/3 5/17/3
f 17/39/1 26/1/1 20/4/1 3/42/1
f 30/30/3 27/29/3 28/43/3 29/44/3
f 14/10/4 23/9/4 29/44/4 28/43/4
f 23/9/5 25/28/5 30/30/5 29/44/5
f 18/24/6 14/10/6 28/43/6 27/29/6
f 33/36/1 31/45/1 32/46/1 34/37/1
f 15/2/7 26/1/7 34/37/7 32/46/7
f 24/34/4 12/33/4 31/45/4 33/36/4
f 12/19/6 15/25/6 32/47/6 31/48/6
